<svg width="27" height="21" viewBox="0 0 27 21" fill="none" xmlns="http://www.w3.org/2000/svg">
<path d="M12.15 6.5625C12.15 8.74125 10.341 10.5 8.1 10.5C5.859 10.5 4.05 8.74125 4.05 6.5625C4.05 4.38375 5.859 2.625 8.1 2.625C10.341 2.625 12.15 4.38375 12.15 6.5625ZM16.2 21H0V18.375C0 15.4744 3.6315 13.125 8.1 13.125C12.5685 13.125 16.2 15.4744 16.2 18.375V21ZM6.75 6.5625C6.75 7.28438 7.3575 7.875 8.1 7.875C8.8425 7.875 9.45 7.28438 9.45 6.5625C9.45 5.84062 8.8425 5.25 8.1 5.25C7.3575 5.25 6.75 5.84062 6.75 6.5625ZM2.7 18.375H13.5C13.5 16.9312 11.0835 15.75 8.1 15.75C5.1165 15.75 2.7 16.9312 2.7 18.375ZM27 10.5V13.125H14.85V10.5H27ZM27 5.25V7.875H14.85V5.25H27ZM27 0V2.625H14.85V0H27Z" fill="black"/>
</svg>
