<svg width="75" height="73" viewBox="0 0 75 73" fill="none" xmlns="http://www.w3.org/2000/svg">
<path fill-rule="evenodd" clip-rule="evenodd" d="M2.67857 0H72.3214L75 2.80769V39.3077H69.6429V22.4615H5.35714V61.7692H42.8571V67.3846H2.67857L0 64.5769V2.80769L2.67857 0ZM5.35714 16.8462H69.6429V5.61538H5.35714V16.8462ZM32.1429 56.1538V50.0106C31.2325 49.6638 30.3835 49.1609 29.6304 48.5225L24.5679 51.5492L21.8893 46.72L26.9089 43.6484C26.7375 42.6324 26.7375 41.5928 26.9089 40.5768L21.8893 37.5108L24.5679 32.6815L29.6304 35.7138C30.4393 35.04 31.2804 34.5402 32.1429 34.2202V28.0769H37.5V34.2202C38.4173 34.5509 39.2689 35.0553 40.0125 35.7082L45.075 32.6815L47.7536 37.5108L42.7339 40.5824C42.9048 41.5965 42.9048 42.6342 42.7339 43.6484L47.7536 46.72L45.075 51.5492L40.0125 48.5169C39.251 49.1437 38.4041 49.6472 37.5 50.0106V56.1538H32.1429ZM30.8036 42.1154C30.8036 43.2834 31.1946 44.2773 31.9768 45.0972C32.3456 45.495 32.7883 45.8093 33.2776 46.0208C33.7669 46.2324 34.2923 46.3365 34.8214 46.3269C35.3506 46.3365 35.876 46.2324 36.3653 46.0208C36.8545 45.8093 37.2972 45.495 37.6661 45.0972C38.0456 44.7105 38.3455 44.2465 38.5473 43.7336C38.7491 43.2208 38.8484 42.67 38.8393 42.1154C38.8484 41.5607 38.7491 41.01 38.5473 40.4971C38.3455 39.9843 38.0456 39.5202 37.6661 39.1336C37.2972 38.7358 36.8545 38.4214 36.3653 38.2099C35.876 37.9984 35.3506 37.8942 34.8214 37.9038C34.2923 37.8942 33.7669 37.9984 33.2776 38.2099C32.7883 38.4214 32.3456 38.7358 31.9768 39.1336C31.5973 39.5202 31.2973 39.9843 31.0956 40.4971C30.8938 41.01 30.7944 41.5607 30.8036 42.1154ZM59.3786 73V66.8568C58.4683 66.5099 57.6193 66.007 56.8661 65.3687L51.8036 68.3954L49.125 63.5662L54.15 60.4945C53.9788 59.4785 53.9788 58.4389 54.15 57.4229L49.125 54.3569L51.8036 49.5277L56.8661 52.56C57.675 51.8862 58.5161 51.3864 59.3839 51.0663V44.9231H64.7411V51.0663C65.6562 51.3984 66.5058 51.9026 67.2482 52.5544L72.3107 49.5277L74.9893 54.3569L69.9696 57.4285C70.1414 58.4426 70.1414 59.4805 69.9696 60.4945L74.9893 63.5662L72.3107 68.3954L67.2482 65.3631C66.4867 65.99 65.6398 66.4935 64.7357 66.8568V73H59.3786ZM58.0393 58.9615C58.0393 60.1295 58.4304 61.1235 59.2125 61.9433C59.5813 62.3411 60.0241 62.6555 60.5133 62.867C61.0026 63.0785 61.528 63.1827 62.0571 63.1731C62.5863 63.1827 63.1117 63.0785 63.601 62.867C64.0902 62.6555 64.5329 62.3411 64.9018 61.9433C65.2823 61.5572 65.5832 61.0933 65.7859 60.5805C65.9886 60.0676 66.0888 59.5166 66.0804 58.9615C66.0888 58.4065 65.9886 57.8555 65.7859 57.3426C65.5832 56.8298 65.2823 56.3659 64.9018 55.9798C64.5336 55.5826 64.0917 55.2687 63.6034 55.0572C63.1152 54.8457 62.5908 54.7412 62.0625 54.75C61.5325 54.7396 61.006 54.8434 60.5158 55.055C60.0256 55.2665 59.582 55.5812 59.2125 55.9798C58.833 56.3664 58.5331 56.8304 58.3313 57.3433C58.1295 57.8561 58.0301 58.4069 58.0393 58.9615Z" fill="white"/>
</svg>
