<svg width="45" height="45" viewBox="0 0 45 45" fill="none" xmlns="http://www.w3.org/2000/svg">
<path fill-rule="evenodd" clip-rule="evenodd" d="M16.4062 15C16.0333 15 15.6756 15.1482 15.4119 15.4119C15.1482 15.6756 15 16.0333 15 16.4062V28.5938C15 29.37 15.63 30 16.4062 30H28.5938C28.9667 30 29.3244 29.8518 29.5881 29.5881C29.8518 29.3244 30 28.9667 30 28.5938V16.4062C30 16.0333 29.8518 15.6756 29.5881 15.4119C29.3244 15.1482 28.9667 15 28.5938 15H16.4062ZM17.8125 27.1875V17.8125H27.1875V27.1875H17.8125Z" fill="white"/>
<path fill-rule="evenodd" clip-rule="evenodd" d="M28.5938 1.875C28.9667 1.875 29.3244 2.02316 29.5881 2.28688C29.8518 2.5506 30 2.90829 30 3.28125V7.5H34.2188C36.03 7.5 37.5 8.97 37.5 10.7812V15H41.7188C42.0917 15 42.4494 15.1482 42.7131 15.4119C42.9768 15.6756 43.125 16.0333 43.125 16.4062C43.125 16.7792 42.9768 17.1369 42.7131 17.4006C42.4494 17.6643 42.0917 17.8125 41.7188 17.8125H37.5V27.1875H41.7188C42.0917 27.1875 42.4494 27.3357 42.7131 27.5994C42.9768 27.8631 43.125 28.2208 43.125 28.5938C43.125 28.9667 42.9768 29.3244 42.7131 29.5881C42.4494 29.8518 42.0917 30 41.7188 30H37.5V34.2188C37.5 35.089 37.1543 35.9236 36.5389 36.5389C35.9236 37.1543 35.089 37.5 34.2188 37.5H30V41.7188C30 42.0917 29.8518 42.4494 29.5881 42.7131C29.3244 42.9768 28.9667 43.125 28.5938 43.125C28.2208 43.125 27.8631 42.9768 27.5994 42.7131C27.3357 42.4494 27.1875 42.0917 27.1875 41.7188V37.5H17.8125V41.7188C17.8125 42.0917 17.6643 42.4494 17.4006 42.7131C17.1369 42.9768 16.7792 43.125 16.4062 43.125C16.0333 43.125 15.6756 42.9768 15.4119 42.7131C15.1482 42.4494 15 42.0917 15 41.7188V37.5H10.7812C9.91101 37.5 9.07641 37.1543 8.46106 36.5389C7.8457 35.9236 7.5 35.089 7.5 34.2188V30H3.28125C2.90829 30 2.5506 29.8518 2.28688 29.5881C2.02316 29.3244 1.875 28.9667 1.875 28.5938C1.875 28.2208 2.02316 27.8631 2.28688 27.5994C2.5506 27.3357 2.90829 27.1875 3.28125 27.1875H7.5V17.8125H3.28125C2.90829 17.8125 2.5506 17.6643 2.28688 17.4006C2.02316 17.1369 1.875 16.7792 1.875 16.4062C1.875 16.0333 2.02316 15.6756 2.28688 15.4119C2.5506 15.1482 2.90829 15 3.28125 15H7.5V10.7812C7.5 8.97 8.97 7.5 10.7812 7.5H15V3.28125C15 2.90829 15.1482 2.5506 15.4119 2.28688C15.6756 2.02316 16.0333 1.875 16.4062 1.875C16.7792 1.875 17.1369 2.02316 17.4006 2.28688C17.6643 2.5506 17.8125 2.90829 17.8125 3.28125V7.5H27.1875V3.28125C27.1875 2.90829 27.3357 2.5506 27.5994 2.28688C27.8631 2.02316 28.2208 1.875 28.5938 1.875ZM34.2188 34.6875C34.3431 34.6875 34.4623 34.6381 34.5502 34.5502C34.6381 34.4623 34.6875 34.3431 34.6875 34.2188V10.7812C34.6875 10.6569 34.6381 10.5377 34.5502 10.4498C34.4623 10.3619 34.3431 10.3125 34.2188 10.3125H10.7812C10.6569 10.3125 10.5377 10.3619 10.4498 10.4498C10.3619 10.5377 10.3125 10.6569 10.3125 10.7812V34.2188C10.3125 34.4775 10.5225 34.6875 10.7812 34.6875H34.2188Z" fill="white"/>
</svg>
