<svg width="41" height="33" viewBox="0 0 41 33" fill="none" xmlns="http://www.w3.org/2000/svg">
<path d="M16.75 24H16.7688M39.25 16.5H1.75H39.25ZM8.21875 3.58125L1.75 16.5V27.75C1.75 28.7446 2.14509 29.6984 2.84835 30.4016C3.55161 31.1049 4.50544 31.5 5.5 31.5H35.5C36.4946 31.5 37.4484 31.1049 38.1516 30.4016C38.8549 29.6984 39.25 28.7446 39.25 27.75V16.5L32.7812 3.58125C32.4708 2.95648 31.9922 2.4307 31.3993 2.06302C30.8064 1.69535 30.1227 1.50037 29.425 1.5H11.575C10.8773 1.50037 10.1936 1.69535 9.60071 2.06302C9.0078 2.4307 8.52921 2.95648 8.21875 3.58125V3.58125ZM9.25 24H9.26875H9.25Z" stroke="white" stroke-width="3" stroke-linecap="round" stroke-linejoin="round"/>
</svg>
