<svg width="358" height="238" viewBox="0 0 358 238" fill="none" xmlns="http://www.w3.org/2000/svg">
<path d="M358 157.675C358 166.6 340.1 172.55 319.217 175.525C305.792 150.238 278.942 130.9 247.617 117.512C250.6 113.05 253.583 110.075 256.567 105.613H268.5C314.742 104.125 358 132.388 358 157.675ZM101.433 104.125H89.5C43.2583 104.125 0 132.388 0 157.675C0 166.6 17.9 172.55 38.7833 175.525C52.2083 150.238 79.0583 130.9 110.383 117.512L101.433 104.125ZM179 119C211.817 119 238.667 92.225 238.667 59.5C238.667 26.775 211.817 0 179 0C146.183 0 119.333 26.775 119.333 59.5C119.333 92.225 146.183 119 179 119ZM179 133.875C117.842 133.875 59.6667 172.55 59.6667 208.25C59.6667 238 179 238 179 238C179 238 298.333 238 298.333 208.25C298.333 172.55 240.158 133.875 179 133.875ZM264.025 89.25H268.5C293.858 89.25 313.25 69.9125 313.25 44.625C313.25 19.3375 293.858 0 268.5 0C261.042 0 255.075 1.4875 249.108 4.4625C261.042 19.3375 268.5 38.675 268.5 59.5C268.5 69.9125 267.008 80.325 264.025 89.25ZM89.5 89.25H93.975C90.9917 80.325 89.5 69.9125 89.5 59.5C89.5 38.675 96.9583 19.3375 108.892 4.4625C102.925 1.4875 96.9583 0 89.5 0C64.1417 0 44.75 19.3375 44.75 44.625C44.75 69.9125 64.1417 89.25 89.5 89.25Z" fill="white"/>
</svg>
