<svg width="45" height="45" viewBox="0 0 45 45" fill="none" xmlns="http://www.w3.org/2000/svg">
<path d="M10 15H15V25H10V15Z" fill="white"/>
<path d="M20 15H25V25H20V15Z" fill="white"/>
<path d="M30 15H35V25H30V15Z" fill="white"/>
<path d="M18.75 33.75H5V21.25H2.5V33.75C2.5 34.413 2.76339 35.0489 3.23223 35.5178C3.70107 35.9866 4.33696 36.25 5 36.25H20.7625V31.9375H23.5875V30H18.75V33.75Z" fill="white"/>
<path d="M40 8.75H5C4.33696 8.75 3.70107 9.01339 3.23223 9.48223C2.76339 9.95107 2.5 10.587 2.5 11.25V16.25H5V11.25H40V16.25H42.5V11.25C42.5 10.587 42.2366 9.95107 41.7678 9.48223C41.2989 9.01339 40.663 8.75 40 8.75Z" fill="white"/>
<path d="M40 33.75H23.75V36.25H40C40.663 36.25 41.2989 35.9866 41.7678 35.5178C42.2366 35.0489 42.5 34.413 42.5 33.75V21.25H40V33.75Z" fill="white"/>
</svg>
