<svg width="67" height="62" viewBox="0 0 67 62" fill="none" xmlns="http://www.w3.org/2000/svg">
<path d="M40.5312 0.6875C38.6664 0.6875 36.878 1.42829 35.5594 2.74691C34.2408 4.06552 33.5 5.85395 33.5 7.71875V17.0938C33.5002 18.5476 33.9511 19.9656 34.7906 21.1527C35.63 22.3397 36.8168 23.2373 38.1875 23.7219V28.8125C38.1877 29.2578 38.3147 29.6939 38.5538 30.0697C38.7928 30.4454 39.134 30.7453 39.5373 30.9342C39.9406 31.123 40.3894 31.1931 40.8311 31.1361C41.2727 31.0792 41.6891 30.8975 42.0312 30.6125L49.8125 24.125H59.2812C61.1461 24.125 62.9345 23.3842 64.2531 22.0656C65.5717 20.747 66.3125 18.9586 66.3125 17.0938V7.71875C66.3125 5.85395 65.5717 4.06552 64.2531 2.74691C62.9345 1.42829 61.1461 0.6875 59.2812 0.6875H40.5312ZM38.1875 7.71875C38.1875 7.09715 38.4344 6.50101 38.874 6.06147C39.3135 5.62193 39.9096 5.375 40.5312 5.375H59.2812C59.9029 5.375 60.499 5.62193 60.9385 6.06147C61.3781 6.50101 61.625 7.09715 61.625 7.71875V17.0938C61.625 17.7154 61.3781 18.3115 60.9385 18.751C60.499 19.1906 59.9029 19.4375 59.2812 19.4375H48.9688C48.4205 19.4377 47.8898 19.6302 47.4687 19.9813L42.875 23.8063V21.7812C42.875 21.1596 42.6281 20.5635 42.1885 20.124C41.749 19.6844 41.1529 19.4375 40.5312 19.4375C39.9096 19.4375 39.3135 19.1906 38.874 18.751C38.4344 18.3115 38.1875 17.7154 38.1875 17.0938V7.71875ZM10.0625 24.125C10.0625 21.6386 11.0502 19.254 12.8084 17.4959C14.5665 15.7377 16.9511 14.75 19.4375 14.75C21.9239 14.75 24.3085 15.7377 26.0666 17.4959C27.8248 19.254 28.8125 21.6386 28.8125 24.125C28.8125 26.6114 27.8248 28.996 26.0666 30.7541C24.3085 32.5123 21.9239 33.5 19.4375 33.5C16.9511 33.5 14.5665 32.5123 12.8084 30.7541C11.0502 28.996 10.0625 26.6114 10.0625 24.125ZM19.4375 19.4375C18.1943 19.4375 17.002 19.9314 16.1229 20.8104C15.2439 21.6895 14.75 22.8818 14.75 24.125C14.75 25.3682 15.2439 26.5605 16.1229 27.4396C17.002 28.3186 18.1943 28.8125 19.4375 28.8125C20.6807 28.8125 21.873 28.3186 22.7521 27.4396C23.6311 26.5605 24.125 25.3682 24.125 24.125C24.125 22.8818 23.6311 21.6895 22.7521 20.8104C21.873 19.9314 20.6807 19.4375 19.4375 19.4375ZM7.71875 38.1875H31.1562C33.0211 38.1875 34.8095 38.9283 36.1281 40.2469C37.4467 41.5655 38.1875 43.3539 38.1875 45.2188C38.1875 50.45 36.0359 54.6406 32.5063 57.4766C29.0328 60.2656 24.3734 61.625 19.4375 61.625C14.5016 61.625 9.84219 60.2656 6.36875 57.4766C2.84375 54.6406 0.6875 50.45 0.6875 45.2188C0.6875 43.3539 1.42829 41.5655 2.74691 40.2469C4.06552 38.9283 5.85395 38.1875 7.71875 38.1875ZM31.1562 42.875H7.71875C7.09715 42.875 6.50101 43.1219 6.06147 43.5615C5.62193 44.001 5.375 44.5971 5.375 45.2188C5.375 49.0484 6.89844 51.8891 9.30313 53.8203C11.7688 55.7984 15.3125 56.9375 19.4375 56.9375C23.5625 56.9375 27.1063 55.7984 29.5719 53.8203C31.9766 51.8891 33.5 49.0484 33.5 45.2188C33.5 44.5971 33.2531 44.001 32.8135 43.5615C32.374 43.1219 31.7779 42.875 31.1562 42.875Z" fill="white"/>
</svg>
