<svg width="69" height="69" viewBox="0 0 69 69" fill="none" xmlns="http://www.w3.org/2000/svg">
<path d="M47.4141 30.1367H21.5391C21.2426 30.1367 21 30.3793 21 30.6758V57.7637C21 58.0602 21.2426 58.3027 21.5391 58.3027H47.4141C47.7105 58.3027 47.9531 58.0602 47.9531 57.7637V30.6758C47.9531 30.3793 47.7105 30.1367 47.4141 30.1367ZM25.3125 34.4492H43.6406V42.333H25.3125V34.4492ZM43.6406 53.9902H25.3125V46.1064H43.6406V53.9902Z" fill="black"/>
<path d="M32 50.4863C32 51.0582 32.2272 51.6067 32.6316 52.011C33.0359 52.4154 33.5844 52.6426 34.1562 52.6426C34.7281 52.6426 35.2766 52.4154 35.6809 52.011C36.0853 51.6067 36.3125 51.0582 36.3125 50.4863C36.3125 49.9145 36.0853 49.366 35.6809 48.9616C35.2766 48.5573 34.7281 48.3301 34.1562 48.3301C33.5844 48.3301 33.0359 48.5573 32.6316 48.9616C32.2272 49.366 32 49.9145 32 50.4863ZM32 38.4922C32 39.0641 32.2272 39.6125 32.6316 40.0169C33.0359 40.4213 33.5844 40.6484 34.1562 40.6484C34.7281 40.6484 35.2766 40.4213 35.6809 40.0169C36.0853 39.6125 36.3125 39.0641 36.3125 38.4922C36.3125 37.9203 36.0853 37.3719 35.6809 36.9675C35.2766 36.5631 34.7281 36.3359 34.1562 36.3359C33.5844 36.3359 33.0359 36.5631 32.6316 36.9675C32.2272 37.3719 32 37.9203 32 38.4922Z" fill="black"/>
<path d="M54.3621 24.9415C51.276 16.7949 43.4124 11 34.2012 11C24.9899 11 17.1264 16.7882 14.0402 24.9348C8.23858 26.4644 3.96651 31.7674 4.0002 38.0609C4.04063 45.0957 9.49863 50.8165 16.3717 51.4297C16.6884 51.4566 16.9579 51.2073 16.9579 50.8906V46.8207C16.9579 46.5512 16.7558 46.3221 16.4862 46.2884C14.6669 46.0593 12.9486 45.2642 11.6279 43.9637C10.0107 42.3802 9.12129 40.2509 9.12129 37.9936C9.12129 36.1068 9.73447 34.3279 10.8867 32.8455C12.012 31.4035 13.5955 30.3591 15.3407 29.9009L17.8945 29.2271L18.8312 26.7541C19.4106 25.2178 20.2192 23.7758 21.2367 22.4753C22.2407 21.1815 23.4334 20.0495 24.7676 19.1062C27.537 17.1588 30.7983 16.1278 34.2012 16.1278C37.604 16.1278 40.8653 17.1588 43.6348 19.1129C44.9757 20.0562 46.1616 21.1883 47.1656 22.482C48.1831 23.7825 48.9917 25.2245 49.5712 26.7608L50.5011 29.2271L53.0481 29.9009C56.7003 30.8712 59.2541 34.1932 59.2541 37.9868C59.2541 40.2509 58.3646 42.3734 56.7475 43.9569C55.4335 45.2507 53.722 46.0525 51.9026 46.2816C51.6331 46.3153 51.4377 46.5444 51.4377 46.814V50.8906C51.4377 51.2073 51.714 51.4566 52.0307 51.4297C58.8835 50.8098 64.328 45.0957 64.3752 38.0744C64.4156 31.7809 60.1503 26.4778 54.3621 24.9415Z" fill="white"/>
</svg>
